<svg width="32" height="32" viewBox="0 0 32 32" fill="none" xmlns="http://www.w3.org/2000/svg">
<rect width="32" height="32" rx="8" fill="#22c55e"/>
<path d="M16 24C20.418 24 24 20.418 24 16C24 11.582 20.418 8 16 8C11.582 8 8 11.582 8 16C8 20.418 11.582 24 16 24Z" fill="white"/>
<path d="M12 14H20V16H12V14Z" fill="#22c55e"/>
<path d="M11 16H21C21.276 16 21.5 16.224 21.5 16.5V19C21.5 19.276 21.276 19.5 21 19.5H11C10.724 19.5 10.5 19.276 10.5 19V16.5C10.5 16.224 10.724 16 11 16Z" fill="#22c55e"/>
</svg>